<?xml version="1.0" encoding="utf-8"?>
<!-- Generator: Adobe Illustrator 26.0.3, SVG Export Plug-In . SVG Version: 6.00 Build 0)  -->
<svg version="1.1" id="Layer_1" xmlns="http://www.w3.org/2000/svg" xmlns:xlink="http://www.w3.org/1999/xlink" x="0px" y="0px"
	 viewBox="0 0 343 92.22" style="enable-background:new 0 0 343 92.22;" xml:space="preserve">
<style type="text/css">
	.st0{fill:#213642;}
	.st1{fill:#DEE56F;}
	.st2{fill:#FFFFFF;}
</style>
<g>
	<g>
		<path class="st2" d="M154.93,39.1c1.65,1.69,2.48,4.04,2.48,7.05v13.13h-6.85v-12.2c0-1.45-0.38-2.57-1.15-3.36
			c-0.77-0.79-1.82-1.19-3.16-1.19c-1.34,0-2.4,0.4-3.16,1.19c-0.77,0.79-1.15,1.91-1.15,3.36v12.2h-6.85v-12.2
			c0-1.45-0.38-2.57-1.15-3.36c-0.77-0.79-1.82-1.19-3.16-1.19c-1.34,0-2.4,0.4-3.16,1.19c-0.77,0.79-1.15,1.91-1.15,3.36v12.2
			h-6.89V36.8h6.89v2.82c0.7-0.94,1.61-1.68,2.74-2.24c1.13-0.55,2.4-0.83,3.83-0.83c1.69,0,3.2,0.36,4.53,1.09
			c1.33,0.72,2.37,1.76,3.12,3.1c0.78-1.23,1.84-2.24,3.18-3.02c1.34-0.78,2.8-1.17,4.39-1.17
			C151.06,36.56,153.28,37.41,154.93,39.1z"/>
		<path class="st2" d="M183.3,49.69h-15.58c0.11,1.4,0.56,2.46,1.35,3.2c0.79,0.74,1.77,1.11,2.92,1.11c1.72,0,2.91-0.72,3.58-2.17
			h7.33c-0.38,1.48-1.05,2.81-2.03,3.99c-0.98,1.18-2.21,2.11-3.68,2.78c-1.48,0.67-3.13,1.01-4.95,1.01c-2.2,0-4.16-0.47-5.88-1.41
			c-1.72-0.94-3.06-2.28-4.03-4.03c-0.97-1.74-1.45-3.79-1.45-6.12s0.48-4.38,1.43-6.12c0.95-1.74,2.29-3.09,4.01-4.03
			c1.72-0.94,3.69-1.41,5.92-1.41c2.18,0,4.11,0.46,5.8,1.37c1.69,0.91,3.01,2.21,3.97,3.91c0.95,1.69,1.43,3.66,1.43,5.92
			C183.42,48.32,183.38,48.99,183.3,49.69z M176.38,45.86c0-1.18-0.4-2.12-1.21-2.82c-0.8-0.7-1.81-1.05-3.02-1.05
			c-1.16,0-2.13,0.34-2.92,1.01c-0.79,0.67-1.28,1.62-1.47,2.86H176.38z"/>
		<path class="st2" d="M186.99,41.92c0.87-1.74,2.06-3.09,3.56-4.03c1.5-0.94,3.18-1.41,5.03-1.41c1.48,0,2.83,0.31,4.05,0.93
			c1.22,0.62,2.18,1.45,2.88,2.5V29.47h6.89v29.8h-6.89v-3.22c-0.64,1.07-1.56,1.93-2.76,2.58c-1.2,0.64-2.58,0.97-4.17,0.97
			c-1.85,0-3.53-0.48-5.03-1.43c-1.5-0.95-2.69-2.31-3.56-4.07c-0.87-1.76-1.31-3.79-1.31-6.1
			C185.68,45.69,186.11,43.66,186.99,41.92z M201.08,43.97c-0.95-0.99-2.11-1.49-3.48-1.49c-1.37,0-2.53,0.49-3.48,1.47
			c-0.95,0.98-1.43,2.33-1.43,4.05c0,1.72,0.48,3.08,1.43,4.09c0.95,1.01,2.11,1.51,3.48,1.51c1.37,0,2.53-0.5,3.48-1.49
			c0.95-0.99,1.43-2.35,1.43-4.07C202.51,46.32,202.03,44.97,201.08,43.97z"/>
		<path class="st2" d="M214.89,33.4c-0.77-0.71-1.15-1.59-1.15-2.64c0-1.07,0.38-1.97,1.15-2.68c0.77-0.71,1.75-1.07,2.96-1.07
			c1.18,0,2.15,0.36,2.92,1.07c0.77,0.71,1.15,1.6,1.15,2.68c0,1.05-0.38,1.93-1.15,2.64c-0.77,0.71-1.74,1.07-2.92,1.07
			C216.65,34.47,215.66,34.11,214.89,33.4z M221.28,36.8v22.47h-6.89V36.8H221.28z"/>
		<path class="st2" d="M226.21,41.92c0.87-1.74,2.06-3.09,3.56-4.03c1.5-0.94,3.18-1.41,5.03-1.41c1.58,0,2.97,0.32,4.17,0.97
			c1.19,0.64,2.11,1.49,2.76,2.54V36.8h6.89v22.47h-6.89v-3.18c-0.67,1.05-1.6,1.89-2.8,2.54c-1.19,0.64-2.58,0.97-4.17,0.97
			c-1.83,0-3.49-0.48-4.99-1.43c-1.5-0.95-2.69-2.31-3.56-4.07c-0.87-1.76-1.31-3.79-1.31-6.1
			C224.9,45.69,225.34,43.66,226.21,41.92z M240.3,43.97c-0.95-0.99-2.11-1.49-3.48-1.49s-2.53,0.49-3.48,1.47
			c-0.95,0.98-1.43,2.33-1.43,4.05c0,1.72,0.48,3.08,1.43,4.09c0.95,1.01,2.11,1.51,3.48,1.51s2.53-0.5,3.48-1.49
			c0.95-0.99,1.43-2.35,1.43-4.07C241.73,46.32,241.26,44.97,240.3,43.97z"/>
	</g>
	<circle class="st1" cx="296.76" cy="46.11" r="42.83"/>
	<g>
		<path d="M268.52,33.5c-0.94-0.83-1.41-1.88-1.41-3.14c0-1.29,0.47-2.36,1.41-3.2c0.94-0.85,2.19-1.27,3.75-1.27
			c1.53,0,2.76,0.42,3.7,1.27c0.94,0.85,1.41,1.91,1.41,3.2c0,1.26-0.47,2.31-1.41,3.14c-0.94,0.83-2.17,1.25-3.7,1.25
			C270.71,34.75,269.46,34.33,268.52,33.5z M276.7,36.56v22.71h-8.94V36.56H276.7z"/>
		<path d="M302.73,39.02c1.46,1.75,2.19,4.11,2.19,7.09v13.17h-8.9V47.23c0-1.07-0.29-1.93-0.87-2.56
			c-0.58-0.63-1.35-0.95-2.32-0.95c-0.99,0-1.77,0.32-2.34,0.95c-0.56,0.63-0.85,1.48-0.85,2.56v12.04h-8.94V36.56h8.94v3.46
			c0.7-1.07,1.63-1.95,2.8-2.62c1.17-0.67,2.56-1.01,4.17-1.01C299.24,36.4,301.27,37.27,302.73,39.02z"/>
		<path d="M309.06,41.74c0.98-1.76,2.35-3.11,4.11-4.05c1.76-0.94,3.77-1.41,6.02-1.41c2.95,0,5.44,0.83,7.47,2.5
			c2.03,1.66,3.31,3.97,3.85,6.93h-9.46c-0.35-1.18-1.03-1.77-2.05-1.77c-0.72,0-1.3,0.34-1.71,1.01c-0.42,0.67-0.62,1.66-0.62,2.98
			c0,1.32,0.21,2.31,0.62,2.98c0.42,0.67,0.99,1.01,1.71,1.01c1.02,0,1.7-0.59,2.05-1.77h9.46c-0.54,2.95-1.82,5.26-3.85,6.93
			c-2.03,1.66-4.52,2.5-7.47,2.5c-2.26,0-4.26-0.47-6.02-1.41c-1.76-0.94-3.13-2.29-4.11-4.05c-0.98-1.76-1.47-3.82-1.47-6.18
			C307.59,45.56,308.07,43.5,309.06,41.74z"/>
	</g>
	<g>
		<path class="st2" d="M6.23,31.13v28.15H3.41V31.13H6.23z"/>
		<path class="st2" d="M29.39,39.32c1.66,1.62,2.5,3.98,2.5,7.07v12.89H29.1V46.71c0-2.39-0.6-4.21-1.79-5.48
			c-1.19-1.26-2.83-1.89-4.89-1.89c-2.12,0-3.81,0.67-5.07,2.01c-1.26,1.34-1.89,3.32-1.89,5.92v12h-2.82V37.29h2.82v3.75
			c0.7-1.34,1.7-2.37,3.02-3.08c1.32-0.71,2.81-1.07,4.47-1.07C25.57,36.88,27.72,37.7,29.39,39.32z"/>
		<path class="st2" d="M46.78,39.66h-5.11v19.61h-2.82V39.66h-3.06v-2.38h3.06v-1.53c0-2.39,0.61-4.15,1.83-5.28
			c1.22-1.13,3.2-1.69,5.94-1.69v2.42c-1.83,0-3.11,0.35-3.85,1.05c-0.74,0.7-1.11,1.87-1.11,3.5v1.53h5.11V39.66z"/>
		<path class="st2" d="M51.17,32.54c-0.4-0.4-0.6-0.9-0.6-1.49c0-0.59,0.2-1.08,0.6-1.47c0.4-0.39,0.89-0.58,1.45-0.58
			c0.56,0,1.05,0.19,1.45,0.58c0.4,0.39,0.6,0.88,0.6,1.47c0,0.59-0.2,1.09-0.6,1.49c-0.4,0.4-0.89,0.6-1.45,0.6
			C52.06,33.14,51.58,32.94,51.17,32.54z M54.03,37.29v21.99h-2.82V37.29H54.03z"/>
		<path class="st2" d="M77.19,39.32c1.66,1.62,2.5,3.98,2.5,7.07v12.89h-2.78V46.71c0-2.39-0.6-4.21-1.79-5.48
			c-1.19-1.26-2.83-1.89-4.89-1.89c-2.12,0-3.81,0.67-5.07,2.01c-1.26,1.34-1.89,3.32-1.89,5.92v12h-2.82V37.29h2.82v3.75
			c0.7-1.34,1.7-2.37,3.02-3.08c1.31-0.71,2.8-1.07,4.47-1.07C73.37,36.88,75.52,37.7,77.19,39.32z"/>
		<path class="st2" d="M85.89,32.54c-0.4-0.4-0.6-0.9-0.6-1.49c0-0.59,0.2-1.08,0.6-1.47c0.4-0.39,0.89-0.58,1.45-0.58
			c0.56,0,1.05,0.19,1.45,0.58c0.4,0.39,0.6,0.88,0.6,1.47c0,0.59-0.2,1.09-0.6,1.49c-0.4,0.4-0.89,0.6-1.45,0.6
			C86.77,33.14,86.29,32.94,85.89,32.54z M88.74,37.29v21.99h-2.82V37.29H88.74z"/>
		<path class="st2" d="M98.81,39.66v13.65c0,1.34,0.25,2.27,0.77,2.78c0.51,0.51,1.41,0.77,2.7,0.77h2.58v2.42h-3.02
			c-1.99,0-3.46-0.46-4.43-1.39c-0.97-0.93-1.45-2.45-1.45-4.57V39.66h-3.06v-2.38h3.06v-5.52h2.86v5.52h6.04v2.38H98.81z"/>
		<path class="st2" d="M109.44,32.54c-0.4-0.4-0.6-0.9-0.6-1.49c0-0.59,0.2-1.08,0.6-1.47c0.4-0.39,0.89-0.58,1.45-0.58
			c0.56,0,1.05,0.19,1.45,0.58c0.4,0.39,0.6,0.88,0.6,1.47c0,0.59-0.2,1.09-0.6,1.49c-0.4,0.4-0.89,0.6-1.45,0.6
			C110.33,33.14,109.85,32.94,109.44,32.54z M112.3,37.29v21.99h-2.82V37.29H112.3z"/>
	</g>
</g>
</svg>
